# xmcd
#
# Track frame offsets: 
#        150
#        21348
#        44878
#        66940
#        91547
#        109780
#        127716
#        144856
#        162293
#        184517
#
# Disc length: 2955 seconds
#
# Revision: 0
# Processed by: cddbd v1.5.2PL0 Copyright (c) Steve Scherf et al.
# Submitted via: ExactAudioCopy v1.0b3
#
DISCID=7c0b890a
DTITLE=Thanh Tuyen, Tuan Vu - Khuc Hat An Tinh
DYEAR=1991
DGENRE=
TTITLE0=Thanh Tuyen - Nguoi yeu co don
TTITLE1=Tuan Vu - Khuc hat an tinh
TTITLE2=Thanh Tuyen - Nua dem ngoai pho
TTITLE3=Han tinh
TTITLE4=Thanh Tuyen - Sac hoa mau nho
TTITLE5=Thanh Tuyen - Hay tra loi em
TTITLE6=Tuan Vu - Tieng ca do ve dau
TTITLE7=Thanh Tuyen - Nho nhau trong doi
TTITLE8=Roi ngay mai xa nhau
TTITLE9=Thanh Tuyen - Chi hai dua minh thoi nhe
EXTD=
EXTT0=
EXTT1=
EXTT2=
EXTT3=
EXTT4=
EXTT5=
EXTT6=
EXTT7=
EXTT8=
EXTT9=
PLAYORDER=
